<?xml version="1.0" standalone="no"?>
<!DOCTYPE svg PUBLIC "-//W3C//DTD SVG 20010904//EN"
 "http://www.w3.org/TR/2001/REC-SVG-20010904/DTD/svg10.dtd">
<svg version="1.0" xmlns="http://www.w3.org/2000/svg"
 width="900.000000pt" height="900.000000pt" viewBox="0 0 900.000000 900.000000"
 preserveAspectRatio="xMidYMid meet">
<metadata>
Created by potrace 1.14, written by Peter Selinger 2001-2017
</metadata>
<g transform="translate(0.000000,900.000000) scale(0.100000,-0.100000)"
fill="#000000" stroke="none">
<path d="M0 4500 l0 -4500 4500 0 4500 0 0 4500 0 4500 -4500 0 -4500 0 0
-4500z m5500 1545 c0 -2 -194 -539 -431 -1192 -237 -653 -510 -1407 -607
-1675 l-177 -488 -387 0 -387 0 13 38 c14 38 1193 3287 1201 3310 3 9 91 12
390 12 212 0 385 -2 385 -5z m-2180 -728 l0 -332 -327 -149 c-766 -347 -1052
-480 -1045 -486 4 -4 250 -105 547 -225 297 -120 603 -245 680 -276 l140 -58
3 -329 2 -330 -547 242 c-302 134 -810 359 -1131 502 l-582 259 0 192 0 191
1128 566 c620 311 1128 565 1130 566 1 0 2 -150 2 -333z m4610 -990 l0 -193
-127 -56 c-71 -31 -575 -254 -1121 -497 -546 -243 -998 -441 -1003 -441 -6 0
-8 125 -7 326 l3 326 682 277 c375 152 684 279 687 282 3 3 -305 147 -684 320
l-690 314 0 333 0 332 1130 -565 1130 -565 0 -193z"/>
</g>
</svg>
