<svg width="1024" height="1024" viewBox="0 0 1024 1024" fill="none" xmlns="http://www.w3.org/2000/svg">
<g clip-path="url(#clip0_1_11)">
<rect x="75" y="109" width="873" height="806" fill="white"/>
<path d="M945.231 0H78.7692C57.8783 0 37.8431 9.80776 23.071 27.2657C8.29887 44.7236 0 68.4017 0 93.0909V930.909C0 955.598 8.29887 979.276 23.071 996.734C37.8431 1014.19 57.8783 1024 78.7692 1024H945.231C966.122 1024 986.157 1014.19 1000.93 996.734C1015.7 979.276 1024 955.598 1024 930.909V93.0909C1024 68.4017 1015.7 44.7236 1000.93 27.2657C986.157 9.80776 966.122 0 945.231 0ZM338.708 614.4C347.064 621.807 352.588 632.833 354.066 645.054C355.543 657.274 352.852 669.688 346.585 679.564C340.317 689.439 330.987 695.968 320.647 697.714C310.306 699.46 299.803 696.279 291.446 688.873L133.908 549.236C129.016 544.901 125.046 539.279 122.312 532.816C119.577 526.353 118.154 519.226 118.154 512C118.154 504.774 119.577 497.647 122.312 491.184C125.046 484.721 129.016 479.099 133.908 474.764L291.446 335.127C299.803 327.721 310.306 324.54 320.647 326.286C330.987 328.032 340.317 334.561 346.585 344.436C352.852 354.312 355.543 366.726 354.066 378.946C352.588 391.167 347.064 402.193 338.708 409.6L223.163 512L338.708 614.4ZM628.628 198.982L471.089 850.618C469.747 856.599 467.408 862.204 464.211 867.105C461.014 872.005 457.022 876.103 452.468 879.159C447.915 882.214 442.892 884.166 437.693 884.9C432.494 885.634 427.223 885.135 422.189 883.433C417.154 881.731 412.458 878.86 408.374 874.987C404.29 871.115 400.9 866.318 398.403 860.879C395.906 855.44 394.352 849.467 393.832 843.31C393.311 837.152 393.835 830.934 395.372 825.018L552.911 173.382C555.939 161.73 562.713 151.947 571.778 146.134C580.844 140.322 591.477 138.944 601.393 142.296C611.309 145.649 619.716 153.465 624.809 164.064C629.901 174.663 631.272 187.2 628.628 198.982ZM890.092 549.236L732.554 688.873C724.198 696.279 713.694 699.46 703.353 697.714C693.013 695.968 683.683 689.439 677.415 679.564C671.148 669.688 668.457 657.274 669.934 645.054C671.412 632.833 676.936 621.807 685.292 614.4L800.837 512L685.292 409.6C681.155 405.933 677.669 401.338 675.034 396.078C672.399 390.819 670.666 384.997 669.934 378.946C669.203 372.895 669.487 366.733 670.771 360.812C672.054 354.891 674.312 349.326 677.415 344.436C680.519 339.546 684.406 335.427 688.857 332.312C693.307 329.198 698.233 327.15 703.353 326.286C708.473 325.422 713.687 325.757 718.698 327.274C723.708 328.791 728.416 331.46 732.554 335.127L890.092 474.764C894.984 479.099 898.954 484.721 901.688 491.184C904.423 497.647 905.846 504.774 905.846 512C905.846 519.226 904.423 526.353 901.688 532.816C898.954 539.279 894.984 544.901 890.092 549.236Z" fill="black"/>
</g>
<defs>
<clipPath id="clip0_1_11">
<rect width="1024" height="1024" fill="white"/>
</clipPath>
</defs>
</svg>
