<?xml version="1.0" standalone="no"?>
<!DOCTYPE svg PUBLIC "-//W3C//DTD SVG 20010904//EN"
 "http://www.w3.org/TR/2001/REC-SVG-20010904/DTD/svg10.dtd">
<svg version="1.0" xmlns="http://www.w3.org/2000/svg"
 width="1024.000000pt" height="1024.000000pt" viewBox="0 0 1024.000000 1024.000000"
 preserveAspectRatio="xMidYMid meet">
<metadata>
Created by potrace 1.14, written by Peter Selinger 2001-2017
</metadata>
<g transform="translate(0.000000,1024.000000) scale(0.100000,-0.100000)"
fill="#000000" stroke="none">
<path d="M630 10220 c-119 -31 -231 -93 -322 -179 -137 -129 -222 -273 -275
-466 l-28 -100 0 -4350 0 -4350 23 -88 c32 -127 74 -227 137 -323 120 -184
286 -304 482 -348 66 -15 460 -16 4475 -16 4351 0 4404 0 4485 20 223 53 408
210 523 443 28 56 63 147 78 202 l27 100 0 4350 0 4350 -23 88 c-52 206 -132
347 -272 480 -69 66 -108 94 -182 130 -174 85 301 77 -4645 76 -4320 0 -4409
0 -4483 -19z m5427 -1426 c116 -56 188 -150 224 -295 17 -64 20 -101 16 -159
-4 -49 -277 -1198 -801 -3365 -878 -3630 -814 -3385 -920 -3483 -86 -78 -133
-97 -246 -97 -89 0 -99 2 -157 34 -149 80 -233 235 -233 425 0 71 83 425 800
3389 873 3609 812 3379 911 3479 55 55 114 88 189 104 76 16 133 8 217 -32z
m-2759 -1848 c244 -125 322 -476 161 -720 -20 -30 -246 -237 -625 -573 -327
-289 -594 -530 -594 -534 0 -4 269 -246 598 -537 482 -428 603 -541 630 -585
123 -204 90 -486 -74 -636 -83 -76 -132 -95 -240 -96 -85 0 -95 2 -158 35 -92
48 -1675 1451 -1729 1532 -126 191 -107 469 44 630 71 75 1636 1456 1670 1474
71 36 104 44 184 41 63 -3 91 -9 133 -31z m3905 14 c29 -11 67 -30 84 -42 16
-13 396 -348 844 -745 572 -507 823 -736 846 -771 100 -155 107 -365 15 -535
-37 -70 -59 -90 -862 -804 -557 -494 -845 -743 -885 -765 -56 -31 -66 -33
-155 -33 -87 0 -100 3 -155 32 -235 122 -312 472 -158 707 29 44 179 182 631
583 325 288 592 528 592 532 0 4 -266 243 -592 532 -637 564 -647 575 -689
708 -38 122 -25 281 33 396 90 179 284 267 451 205z"/>
</g>
</svg>
